<svg xmlns="http://www.w3.org/2000/svg" viewBox="0 0 128 128">
  <path fill="#ffca28" d="M27.35 80.52l10.68-68.44c.37-2.33 3.5-2.89 4.6-.7L49.13 25a.5.5 0 00.84.11L58.4 9.21c.31-.44.9-.65 1.42-.52.26.07.49.21.69.41L85.29 34.02c.38.41.37 1.05-.04 1.43L42.53 77.77c-.19.2-.44.31-.7.35L26.7 80.21c-.51.1-1.02-.2-1.11-.71-.04-.25.01-.51.15-.73l1.61-2.25z"/>
  <path fill="#ff8f00" d="M78.12 9.48c.31-.44.9-.65 1.42-.52.26.07.49.21.69.41l22.78 24.92c.38.41.37 1.05-.04 1.43L69.06 72.95 48.6 45.22c-.19-.25-.49-.4-.82-.4-.26 0-.51.1-.69.28L27.35 65.06c-.38.41-.37 1.05.04 1.43L69.06 109.8c.19.2.44.31.7.35L83.3 112.24c.51.1 1.02-.2 1.11-.71.04-.25-.01-.51-.15-.73L78.12 9.48z"/>
  <path fill="#f57c00" d="M49.13 25c-.19-.25-.49-.4-.82-.4-.26 0-.51.1-.69.28L1.28 66.5c-.38.41-.37 1.05.04 1.43L34.06 96.1c.19.2.44.31.7.35L48.3 98.54c.51.1 1.02-.2 1.11-.71.04-.25-.01-.51-.15-.73L45.55 25.71c-.37-2.33-3.5-2.89-4.6-.7L49.13 25z"/>
</svg>
