<svg xmlns="http://www.w3.org/2000/svg" viewBox="0 0 128 128">
  <path fill="#0052cc" d="M108.57 22.13a61.473 61.473 0 00-8.14-4.6l-.46-.15-.14-.46a53.596 53.596 0 00-5.34-11.3 15.67 15.67 0 00-6.7-5.95 15.518 15.518 0 00-7.65-1.04 15.597 15.597 0 00-7.14 2.96L72.5 3.73l-.42.35a61.157 61.157 0 00-6.15 5.46 15.375 15.375 0 00-3.19 6.25 14.299 14.299 0 00-.54 3.84 15.505 15.505 0 00.9 4.76l.23.46-.42.35a47.69 47.69 0 00-6.06 5.64 15.649 15.649 0 00-3.99 8.95 15.269 15.269 0 00.13 4.2 15.597 15.597 0 002.69 6.37l.31.42-.35.42a38.322 38.322 0 00-4.44 6.76 15.649 15.649 0 00-2.35 8.04 15.32 15.32 0 003.21 9.12l.28.35-.3.4a28.067 28.067 0 00-3.83 7.47 15.673 15.673 0 00-.68 8.3 15.526 15.526 0 005.86 10.08l.22.18-.15.22a61.436 61.436 0 004.6 8.14l.15.46.46.14a53.596 53.596 0 0011.3 5.34 15.67 15.67 0 006.7 1.59 15.44 15.44 0 006.79-1.45 15.597 15.597 0 006.15-4.54l.42-.35.35.42a61.436 61.436 0 005.46 6.15 15.673 15.673 0 008.95 3.99 15.27 15.27 0 004.2-.13 15.597 15.597 0 006.37-2.69l.42-.31.42.35a38.322 38.322 0 006.76 4.44 15.673 15.673 0 008.04 2.35 15.305 15.305 0 009.12-3.21l.35-.28.4.3a28.067 28.067 0 007.47 3.83 15.673 15.673 0 008.3.68 15.526 15.526 0 0010.08-5.86l.18-.22.22.15a61.473 61.473 0 008.14 4.6l.46.15.14.46a53.596 53.596 0 005.34 11.3 15.67 15.67 0 006.7 5.95 15.518 15.518 0 007.65 1.04 15.597 15.597 0 007.14-2.96l.35-.42.42.35a61.157 61.157 0 006.15-5.46 15.375 15.375 0 003.19-6.25 14.299 14.299 0 00.54-3.84 15.505 15.505 0 00-.9-4.76l-.23-.46.42-.35a47.69 47.69 0 006.06-5.64 15.649 15.649 0 003.99-8.95 15.269 15.269 0 00-.13-4.2 15.597 15.597 0 00-2.69-6.37l-.31-.42.35-.42a38.322 38.322 0 004.44-6.76 15.649 15.649 0 002.35-8.04 15.32 15.32 0 00-3.21-9.12l-.28-.35.3-.4a28.067 28.067 0 003.83-7.47 15.673 15.673 0 00.68-8.3 15.526 15.526 0 00-5.86-10.08l-.22-.18.15-.22a61.473 61.473 0 00-4.6-8.14l-.15-.46-.46-.14a53.596 53.596 0 00-11.3-5.34 15.67 15.67 0 00-6.7-1.59 15.44 15.44 0 00-6.79 1.45 15.597 15.597 0 00-6.15 4.54l-.42.35-.35-.42a61.436 61.436 0 00-5.46-6.15 15.673 15.673 0 00-8.95-3.99 15.27 15.27 0 00-4.2.13 15.597 15.597 0 00-6.37 2.69l-.42.31-.42-.35a38.322 38.322 0 00-6.76-4.44 15.673 15.673 0 00-8.04-2.35 15.305 15.305 0 00-9.12 3.21l-.35.28-.4-.3a28.067 28.067 0 00-7.47-3.83 15.673 15.673 0 00-8.3-.68 15.526 15.526 0 00-10.08 5.86l-.18.22-.22-.15z"/>
  <path fill="#2684ff" d="M84.3 45.15a5.235 5.235 0 00-3.38-1.12 5.252 5.252 0 00-3.38 1.12L67.42 51.5l-5.91 5.91a14.243 14.243 0 00-4.12 10.11c0 3.72 1.45 7.21 4.12 9.88l2.65 2.65-7.35 7.35a5.252 5.252 0 000 7.42l.71.71a5.252 5.252 0 007.42 0l7.35-7.35 2.65 2.65a14.243 14.243 0 0010.11 4.12c3.72 0 7.21-1.45 9.88-4.12l5.91-5.91 6.35-6.35a5.252 5.252 0 000-7.42l-.71-.71a5.235 5.235 0 00-3.38-1.12 5.252 5.252 0 00-3.38 1.12L84.3 45.15z"/>
</svg>
