<svg xmlns="http://www.w3.org/2000/svg" viewBox="0 0 128 128">
  <path fill="#3178c6" d="M2 63.91v62.5h125v-125H2zm100 73.73a7.6 7.6 0 01-7.51 6.14c-2.4 0-4.47-1.07-5.57-2.83-1.65-2.92-3.23-5.88-4.84-8.81-5.38-9.52-10.87-19.03-16.26-28.6h-6.39c1.61-7.53 3.23-15.07 4.84-22.6H87.3L80.19 88h-6.34c-1.61-7.53-3.25-15.07-4.87-22.6-.67-3.11-1.36-6.21-2.04-9.31H59.29c-.71 2.64-1.35 5.26-1.97 7.88-2.07 8.51-4.18 17-6.3 25.5h-6.39l-4.87-25.5H37.92L31.09 88h-6.34c-1.67-8.66-3.35-17.32-5.02-25.98-.1-.4-.2-.8-.31-1.19H7.38c.11.4.23.8.34 1.19L22.35 88h-6.34z"/>
  <path fill="#fff" d="M51.6 2.38v10.5H27.88v46.23H18.72V12.88H-4.99V2.38z"/>
</svg>
